<svg xmlns="http://www.w3.org/2000/svg" width="551.998" height="398.071" viewBox="0 0 551.998 398.071">
    <defs>
        <linearGradient id="prefix__linear-gradient" x1=".482" x2=".485" y1=".031" y2=".774" gradientUnits="objectBoundingBox">
            <stop offset="0" stop-color="#00bede" stop-opacity=".988"/>
            <stop offset="1" stop-color="#35e1ca" stop-opacity=".11"/>
        </linearGradient>
        <linearGradient id="prefix__linear-gradient-2" x1=".484" x2=".486" y1=".294" y2=".815" gradientUnits="objectBoundingBox">
            <stop offset="0" stop-color="#238bea"/>
            <stop offset=".732" stop-color="#1fd3d2" stop-opacity=".4"/>
            <stop offset="1" stop-color="#35d3e1" stop-opacity=".141"/>
        </linearGradient>
        <style>
            .prefix__cls-1,.prefix__cls-3{fill:none}.prefix__cls-1{stroke:#195dff}.prefix__cls-1,.prefix__cls-2,.prefix__cls-3{stroke-linecap:round}.prefix__cls-1,.prefix__cls-2,.prefix__cls-3,.prefix__cls-5{stroke-miterlimit:10}.prefix__cls-2{fill:#eaf9fb}.prefix__cls-10,.prefix__cls-2,.prefix__cls-6,.prefix__cls-7,.prefix__cls-8,.prefix__cls-9{stroke:#000}.prefix__cls-19,.prefix__cls-3{stroke:#002226}.prefix__cls-4{opacity:.7}.prefix__cls-11,.prefix__cls-5,.prefix__cls-8{fill:#fff}.prefix__cls-5{stroke:#263238}.prefix__cls-6{fill:#e2edff}.prefix__cls-7{fill:#002226}.prefix__cls-10{fill:#eef4fe}.prefix__cls-19{fill:#f8feff;isolation:isolate}
        </style>
    </defs>
    <g id="prefix__Group_4175" data-name="Group 4175" transform="translate(-1057.643 -315.501)">
        <g id="prefix__Group_4174" data-name="Group 4174">
            <path id="prefix__Line_61" d="M0 0L329.843 0.309" class="prefix__cls-1" data-name="Line 61" transform="translate(1266.5 664.5)"/>
            <path id="prefix__Line_194" d="M0 0L87.64 0" class="prefix__cls-1" data-name="Line 194" transform="translate(1058.143 664.809)"/>
            <path id="prefix__Line_62" d="M0 0L249.715 0" class="prefix__cls-1" data-name="Line 62" transform="translate(1125.222 713.072)"/>
            <g id="prefix__Group_1411" data-name="Group 1411" transform="translate(1088.836 612.106)">
                <path id="prefix__Path_659" d="M473.5 729.615a8.652 8.652 0 0 0 4.454-3.109 8.008 8.008 0 0 0-.207-9.074c-1.028-1.26-2.412-1.975-3.3-3.42a6.173 6.173 0 0 1-.357-6.085s3.556-4.385-2.371-7.585c0 0-3.082-1.422-1.3-5.333 0 0 1.541-5.333-4.268-5.57 0 0-6.045-.593-4.742 6.281.236 1.247.872 1.912.11 3.256-1.444 2.547-5.354 2.482-5.145 6.159.116 2.045 1.744 3.692 1.7 5.761-.061 2.888-2.682 4-4.288 5.954a8.808 8.808 0 0 0-1.786 3.26c-1.149 4.279 2.535 7.545 5.857 9.5" class="prefix__cls-2" data-name="Path 659" transform="translate(-451.781 -689.426)"/>
                <path id="prefix__Line_55" d="M0 20.503L0 0" class="prefix__cls-3" data-name="Line 55" transform="translate(13.185 31.419)"/>
                <path id="prefix__Line_56" d="M0 14.34L0 0" class="prefix__cls-3" data-name="Line 56" transform="translate(13.185 15.657)"/>
                <path id="prefix__Line_57" d="M0 3.555L3.675 0" class="prefix__cls-3" data-name="Line 57" transform="translate(13.185 21.464)"/>
                <path id="prefix__Line_58" d="M2.371 2.37L0 0" class="prefix__cls-3" data-name="Line 58" transform="translate(10.814 15.42)"/>
                <path id="prefix__Line_59" d="M0 4.978L0 0" class="prefix__cls-3" data-name="Line 59" transform="translate(13.54 7.835)"/>
            </g>
            <g id="prefix__Group_1493" data-name="Group 1493" transform="translate(1583.498 625.475)">
                <path id="prefix__Path_659-2" d="M467.908 719.266a6.424 6.424 0 0 0 3.307-2.309 5.946 5.946 0 0 0-.154-6.737c-.763-.936-1.791-1.466-2.448-2.54a4.584 4.584 0 0 1-.265-4.518s2.641-3.256-1.76-5.632c0 0-2.288-1.056-.968-3.96 0 0 1.144-3.96-3.169-4.136 0 0-4.489-.44-3.521 4.663.175.926.648 1.42.082 2.418-1.072 1.891-3.976 1.843-3.82 4.573.086 1.518 1.295 2.741 1.262 4.278-.046 2.144-1.991 2.972-3.184 4.421a6.54 6.54 0 0 0-1.33 2.422c-.853 3.177 1.883 5.6 4.349 7.057" class="prefix__cls-2" data-name="Path 659" transform="translate(-451.781 -689.426)"/>
                <path id="prefix__Line_55-2" d="M0 15.224L0 0" class="prefix__cls-3" data-name="Line 55" transform="translate(9.79 23.329)"/>
                <path id="prefix__Line_56-2" d="M0 10.648L0 0" class="prefix__cls-3" data-name="Line 56" transform="translate(9.79 11.625)"/>
                <path id="prefix__Line_57-2" d="M0 2.64L2.729 0" class="prefix__cls-3" data-name="Line 57" transform="translate(9.79 15.937)"/>
                <path id="prefix__Line_58-2" d="M1.76 1.76L0 0" class="prefix__cls-3" data-name="Line 58" transform="translate(8.029 11.449)"/>
                <path id="prefix__Line_59-2" d="M0 3.696L0 0" class="prefix__cls-3" data-name="Line 59" transform="translate(10.054 5.817)"/>
            </g>
            <g id="prefix__Group_2391" class="prefix__cls-4" data-name="Group 2391" transform="translate(2809.683 -3777.927)">
                <path id="prefix__Path_1413" d="M-1259.054 4199.41c2.579-1.407 3.752-.234 4.69-1.407s-2.579-4.221 4.456-7.27c0 0 .469-6.566 10.083-6.8s7.035 6.566 9.614 8.208 3.284-.937 5.863.7 1.407 4.924 3.517 5.394 4.924-2.11 7.5-.47 2.58 3.049 3.752 3.049 3.518-.937 4.924 0 3.049 2.11 3.049 2.11h-59.328s-.7-2.107 1.88-3.514z" class="prefix__cls-5" data-name="Path 1413"/>
            </g>
            <g id="prefix__Group_2391-2" class="prefix__cls-4" data-name="Group 2391" transform="translate(2572.683 -3867.927)">
                <path id="prefix__Path_1413-2" d="M-1257.192 4214.095c5.025-2.741 7.31-.457 9.138-2.741s-5.025-8.225 8.681-14.164c0 0 .914-12.794 19.646-13.251s13.707 12.793 18.73 15.991 6.4-1.826 11.423 1.371 2.741 9.594 6.853 10.509 9.594-4.111 14.621-.915 5.027 5.94 7.311 5.94 6.854-1.825 9.594 0 5.94 4.111 5.94 4.111h-115.593s-1.37-4.111 3.656-6.851z" class="prefix__cls-5" data-name="Path 1413"/>
            </g>
            <g id="prefix__bike" transform="translate(1235.923 533.689)">
                <g id="prefix__bike-2" data-name="bike">
                    <g id="prefix__motorcycle">
                        <path id="prefix__Path_966" d="M186.725 259.526h-16.044l-13.395-42.44 29.439.849z" class="prefix__cls-6" data-name="Path 966" transform="translate(-90.455 -158.435)"/>
                        <ellipse id="prefix__Ellipse_104" cx="36.938" cy="36.045" class="prefix__cls-7" data-name="Ellipse 104" rx="36.938" ry="36.045" transform="translate(159.669 58.386)"/>
                        <path id="prefix__Path_1013" d="M20.2 0A20.2 20.2 0 1 1 0 20.2 20.2 20.2 0 0 1 20.2 0z" class="prefix__cls-8" data-name="Path 1013" transform="translate(177.365 74.111)"/>
                        <ellipse id="prefix__Ellipse_106" cx="7.745" cy="8.043" class="prefix__cls-9" data-name="Ellipse 106" rx="7.745" ry="8.043" transform="translate(190.053 86.388)"/>
                        <ellipse id="prefix__Ellipse_107" cx="35.747" cy="36.045" class="prefix__cls-7" data-name="Ellipse 107" rx="35.747" ry="36.045" transform="translate(8.937 58.386)"/>
                        <ellipse id="prefix__Ellipse_108" cx="19.363" cy="20.256" class="prefix__cls-8" data-name="Ellipse 108" rx="19.363" ry="20.256" transform="translate(25.023 73.877)"/>
                        <path id="prefix__Path_967" d="M209.9 193.15h29.132v38.764H209.9z" class="prefix__cls-6" data-name="Path 967" transform="translate(-116.686 -146.501)"/>
                        <path id="prefix__Path_968" d="M216 199.995h24.068v4.011H216z" class="prefix__cls-7" data-name="Path 968" transform="translate(-119.729 -149.914)"/>
                        <path id="prefix__Path_969" d="M24 207.995h20.055v24.068H24z" class="prefix__cls-6" data-name="Path 969" transform="translate(-23.999 -153.903)"/>
                        <ellipse id="prefix__Ellipse_109" cx="9.532" cy="8.043" class="prefix__cls-9" data-name="Ellipse 109" rx="9.532" ry="8.043" transform="translate(35.151 86.388)"/>
                        <path id="prefix__Path_970" d="M24 288h80.225a8.023 8.023 0 0 1 0 16.045H24z" class="prefix__cls-6" data-name="Path 970" transform="translate(-23.999 -193.793)"/>
                        <path id="prefix__Path_971" d="M172.123 183.995v20.056l-20.056 12.034-20.057-12.034-4.01-4.011v-12.034l4.011-4.011z" class="prefix__cls-6" data-name="Path 971" transform="translate(-75.853 -141.936)"/>
                        <path id="prefix__Path_972" d="M284.056 195.315l-8.023 28.079-2.006 4.843-7.666-.832-2.361-4.011v-28.079l1.769-4.011 15.119-.695z" class="prefix__cls-10" data-name="Path 972" transform="translate(-143.662 -145.234)"/>
                        <path id="prefix__Path_973" d="M180.146 184.045H128v-8.023h4.011a8.023 8.023 0 0 1 8.023-8.022h44.124z" class="prefix__cls-6" data-name="Path 973" transform="translate(-75.853 -133.961)"/>
                        <path id="prefix__Path_974" d="M56 151.995h40.112v56.158H56z" class="prefix__cls-6" data-name="Path 974" transform="translate(-39.954 -125.981)"/>
                        <path id="prefix__Path_975" d="M56 151.995h40.112v16.045H56z" class="prefix__cls-6" data-name="Path 975" transform="translate(-39.954 -125.981)"/>
                        <path id="prefix__Path_976" d="M276.146 176.068H224l4.011-16.045 12.658-6.328a16.045 16.045 0 0 1 7.175-1.695h28.3a8.022 8.022 0 0 1 8.022 8.023v8.023a8.022 8.022 0 0 1-8.02 8.022z" class="prefix__cls-6" data-name="Path 976" transform="translate(-123.718 -125.984)"/>
                        <path id="prefix__Path_977" d="M284.056 199.995H264v4.011h18.91z" class="prefix__cls-7" data-name="Path 977" transform="translate(-143.662 -149.914)"/>
                        <path id="prefix__Path_978" d="M136 199.995h40.113v4.011H136z" class="prefix__cls-7" data-name="Path 978" transform="translate(-79.841 -149.914)"/>
                        <rect id="prefix__Rectangle_2390" width="47.067" height="26.81" class="prefix__cls-6" data-name="Rectangle 2390" rx="13.405" transform="translate(91.75 75.664)"/>
                        <path id="prefix__Path_979" d="M238.492 224.245h-50.481a4.011 4.011 0 1 1 0-8.022h50.482a4.014 4.014 0 0 0 3.78-2.675l26.187-74.863a4.013 4.013 0 1 1 7.576 2.648L249.845 216.2a12.057 12.057 0 0 1-11.353 8.045z" class="prefix__cls-6" data-name="Path 979" transform="translate(-103.774 -118.004)"/>
                        <path id="prefix__Path_980" d="M380.1 208.244a4.016 4.016 0 0 1-3.725-2.523L344.283 125.5a4.012 4.012 0 1 1 7.45-2.981l32.09 80.225a4.015 4.015 0 0 1-3.725 5.5z" class="prefix__cls-6" data-name="Path 980" transform="translate(-183.547 -110.025)"/>
                        <path id="prefix__Path_981" d="M336.213 125.068a3.983 3.983 0 0 1-.975-.119l-20.207-5.049a4.011 4.011 0 1 1 1.943-7.784l20.207 5.052a4.011 4.011 0 0 1-.968 7.9z" class="prefix__cls-10" data-name="Path 981" transform="translate(-167.589 -106.037)"/>
                        <ellipse id="prefix__Ellipse_110" cx="6.851" cy="9.83" class="prefix__cls-7" data-name="Ellipse 110" rx="6.851" ry="9.83" transform="translate(137.029)"/>
                        <path id="prefix__Path_982" d="M368.068 144.068h-12.034a12.034 12.034 0 1 1 0-24.068h16.045z" class="prefix__cls-8" data-name="Path 982" transform="translate(-183.549 -110.029)"/>
                        <path id="prefix__Path_983" d="M356.034 120a12.034 12.034 0 1 0 0 24.068h8.022L368.068 120z" class="prefix__cls-6" data-name="Path 983" transform="translate(-183.549 -110.029)"/>
                        <ellipse id="prefix__Ellipse_111" cx="3.277" cy="4.17" class="prefix__cls-8" data-name="Ellipse 111" rx="3.277" ry="4.17" transform="translate(140.604 5.958)"/>
                        <path id="prefix__Path_984" d="M88 167.995h8.023v16.045H88z" class="prefix__cls-6" data-name="Path 984" transform="translate(-55.909 -133.959)"/>
                    </g>
                </g>
            </g>
            <g id="prefix__Group_4172" data-name="Group 4172">
                <g id="prefix__Group_1412" data-name="Group 1412" transform="translate(1433.39 502.682)">
                    <ellipse id="prefix__Ellipse_13" cx="8.923" cy="9.494" class="prefix__cls-11" data-name="Ellipse 13" rx="8.923" ry="9.494" transform="rotate(-3.96 17.776 .614)"/>
                    <path id="prefix__Union_4" fill="#fff" stroke="rgba(0,0,0,0)" stroke-miterlimit="10" d="M60.129 92.659l-.054.091s-.127-.087-.369-.26A9.634 9.634 0 0 1 56 89.664C44.353 80.324 11.018 49.9 0 0c0 0 14.012 38.793 66.168 73.689a9.493 9.493 0 0 1 3.544 2.327l.217.14-.033.056a10.387 10.387 0 0 1 2.673 6.315c.382 5.532-3.523 10.308-8.723 10.666q-.312.022-.621.021a8.921 8.921 0 0 1-3.096-.555z" data-name="Union 4" transform="rotate(-169 43.222 57.804)"/>
                </g>
                <path id="prefix__Path_552" fill="url(#prefix__linear-gradient)" d="M1097.174 281.281V237.7c0-87.649 75.1-158.7 167.748-158.7s167.748 71.054 167.748 158.7v43.579" data-name="Path 552" opacity="0.2" transform="translate(89.764 380.397)"/>
                <path id="prefix__Path_553" d="M1097.174 279.85v-43.27c0-87.029 75.1-157.58 167.748-157.58s167.748 70.551 167.748 157.58v43.27" class="prefix__cls-1" data-name="Path 553" transform="translate(91.522 381.596)"/>
                <path id="prefix__Path_990" fill="url(#prefix__linear-gradient-2)" d="M1097.174 281.281V237.7c0-87.649 75.1-158.7 167.748-158.7s167.748 71.054 167.748 158.7v43.579" data-name="Path 990" opacity="0.2" transform="translate(91.522 382.155)"/>
                <ellipse id="prefix__Ellipse_13-2" cx="8.923" cy="9.494" fill="#fff" data-name="Ellipse 13" opacity="0.6" rx="8.923" ry="9.494" transform="matrix(.998 -.069 .069 .998 1433.39 503.91)"/>
                <path id="prefix__Union_4-2" fill="#fff" stroke="rgba(0,0,0,0)" stroke-miterlimit="10" d="M60.129 92.659l-.054.091s-.127-.087-.369-.26A9.634 9.634 0 0 1 56 89.664C44.353 80.324 11.018 49.9 0 0c0 0 14.012 38.793 66.168 73.689a9.493 9.493 0 0 1 3.544 2.327l.217.14-.033.056a10.387 10.387 0 0 1 2.673 6.315c.382 5.532-3.523 10.308-8.723 10.666q-.312.022-.621.021a8.921 8.921 0 0 1-3.096-.555z" data-name="Union 4" opacity="0.6" transform="rotate(-169 784.118 240.136)"/>
            </g>
            <g id="prefix__Group_4173" data-name="Group 4173">
                <path id="prefix__Path_562" fill="#0e215c" d="M1105.133 502.249h-10.742a7.672 7.672 0 0 1 5.082-1.8.509.509 0 0 0 .5-.52.5.5 0 0 0-.52-.5 8.188 8.188 0 0 0-6.459 2.817h-23.666a.509.509 0 0 0 0 1.018h35.807a.509.509 0 1 0 0-1.018z" data-name="Path 562" transform="translate(103.271 209.144)"/>
                <path id="prefix__Path_554" fill="#35d3e1" stroke="#002226" d="M1133.114 131.876h-10.767a.355.355 0 0 1-.33-.484l9.112-23.147a.356.356 0 0 1 .33-.224h10.767a.354.354 0 0 1 .33.484l-9.113 23.147a.353.353 0 0 1-.329.224z" data-name="Path 554" transform="translate(81.238 371.329)"/>
                <path id="prefix__Path_555" d="M1133.181 125.514h-7.381a.243.243 0 0 1-.226-.332l6.248-15.871a.243.243 0 0 1 .226-.154h7.382a.243.243 0 0 1 .226.332l-6.248 15.871a.244.244 0 0 1-.227.154z" class="prefix__cls-11" data-name="Path 555" transform="translate(80.96 372.057)"/>
                <path id="prefix__Path_556" d="M1076.4 424.406s-2.221-25.224-4.6-48.386 3.966-25.7 5.711-28.556c1.155-1.89.365-8.224-.3-12.294l-11.278-.464 1.863 10.951a3.77 3.77 0 0 1-.282 2.2c-6.933 15.217-2.453 27.251 1.116 43.079a138.743 138.743 0 0 1 3.193 29.253 5.387 5.387 0 0 1-.762 2.714 29.778 29.778 0 0 0-3.7 10.5 1.206 1.206 0 0 0 1.223 1.384l5.131-.128c-.792-2.287 2.685-10.253 2.685-10.253z" class="prefix__cls-19" data-name="Path 556" transform="translate(105.32 277.4)"/>
                <path id="prefix__Path_557" d="M1101.224 431.556c-2.128-.919-7.876-3.921-10.88-5.505a3.032 3.032 0 0 1-1.589-3.107c1.58-11.121 8.944-62.721 10.591-70.074a48.51 48.51 0 0 0 .388-16.657l-17.292-.713c.667 4.07 1.458 10.4.3 12.294-1.745 2.856-8.091 5.394-5.711 28.556s4.6 48.386 4.6 48.386-3.477 7.966-2.69 10.249l29.376-.731c.036-2.222-4.156-1.428-7.093-2.698z" class="prefix__cls-19" data-name="Path 557" transform="translate(100.086 277.071)"/>
                <path id="prefix__Path_558" fill="#dcf5f8" stroke="#000" d="M1051.446 176.361s5.769 32.589 4.054 35.863-17.775 28.729-18.867 56c0 0 6.081 9.18 31.185 7s25.012-3.742 25.012-3.742l-2.063-15.593 4.962 14.345 2.962-1.543s-8.575-22.314-9.2-31.357-6.081-22.128-6.081-22.128 5.457-25.429 4.21-35.408-36.174-3.437-36.174-3.437z" data-name="Path 558" transform="translate(116.608 343.886)"/>
                <path id="prefix__Path_559" fill="#edf0f5" stroke="#002226" stroke-width="0.7px" d="M1111.71 139.534s7.722-8.918 10.165-9.123-3.912 7.935-3.912 7.935 4.669 2.66 4.567 3.993-2.516 6.422-2.516 6.422z" data-name="Path 559" transform="translate(85.499 362.052)" style="isolation:isolate"/>
                <path id="prefix__Path_560" d="M1104.757 132.872s8.092-2.882 12.344 4.164 5.059 12.6 6.583 17.879c9.267 37.652-1.1-15.812 0-19.769s3.977-6.013 4.114-8.482-.96-9.729.412-9.459 2.606 6.854 2.606 6.854l2.332-6.861s5.1 6.861 2 10.7-6.118 7.955-5.569 10.972 11.355 43.889 6.568 49.787-15.895 5.075-24.261-24.413-7.129-31.372-7.129-31.372z" class="prefix__cls-19" data-name="Path 560" transform="translate(88.406 367.526)"/>
                <path id="prefix__Path_561" fill="#002226" d="M1045.815 93.647s0 17.232-6.393 24.188-8.46 17.484-2.632 24.441c0 0-4.7 15.48 7.9 20.9a21.631 21.631 0 0 0 21.809-2.288s9.588-1.881 9.776-9.589c0 0 11.281-.376 8.837-16.92s-5.8-13.985-5.076-23.658c0 0 11.371-8.628 9.07-22s-18.334-21.9-26.661-19.035-17.57 8.422-16.63 23.961z" data-name="Path 561" transform="translate(117.965 387.443)"/>
            </g>
        </g>
    </g>
</svg>
