<?xml version="1.0" encoding="utf-8"?>
<!-- Uploaded to SVGRepo https://www.svgrepo.com -->
<svg version="1.1" id="Layer_1" xmlns="http://www.w3.org/2000/svg" xmlns:xlink="http://www.w3.org/1999/xlink" x="0px" y="0px"
	 viewBox="0 0 222 256" style="enable-background:new 0 0 222 256;" xml:space="preserve">
<ellipse transform="matrix(0.337 -0.9415 0.9415 0.337 -113.0684 327.4005)" cx="175.9" cy="244" rx="9.8" ry="9.8"/>
<g>
	<path d="M70.7,44.2c11.5-0.9,20.1-11,19.2-22.4c-1-11.5-11-20.1-22.5-19.2c-11.5,1-20.1,10.9-19.2,22.5
		C49.2,36.5,59.2,45.1,70.7,44.2z"/>
	<path d="M217.4,218.9l-27-65.9c-1.1-2.6-3-4.6-5.5-5.4c-1.8-0.6-3.6-0.6-5.3,0.1l-30.7,12.6c-0.1,0-0.1,0.1-0.2,0.1l-9.4-23
		c4.6-0.9,8-5.1,7.6-10c-0.1-0.4-0.1-0.8-0.2-1.2l-13.5-34.8c-0.5-1.8-1.5-3.4-2.9-4.5L88.4,52.8c-4.1-2.9-9.2-4.8-14.6-4.4
		c-7.2,0.6-13.1,5-16.7,10.5l-21.1,41.8L7.3,120.4c-2.4,1.9-3.9,5-3.7,8.2c0.4,5.2,5,9.1,10.2,8.7c1.5-0.1,2.8-0.7,4.3-1.4
		l31.3-21.6c1-0.8,1.8-1.7,2.3-2.8l7.9-15.6l9.4,41.7l-37,43.7c-0.8,1.4-1.4,2.9-1.7,4.5l-10,52.9c0.1,1.2-0.1,1.9-0.1,2.9
		c0.6,7.8,7.4,13.6,15.2,12.9c6.4-0.5,11.2-5.3,12.7-11.2l9.5-49.5l30.1-33l7,32.1c0.2,1.5,2.2,4.7,2.8,6l28.9,48.7
		c2.9,4.5,7.7,7.3,13.2,6.9c7.8-0.6,13.6-7.4,13-15.2c-0.2-2.2-1.1-4.5-1.9-6.1l-26.9-45.1L101.6,89l14.6,11.8l10.2,24.7l1.8,4.5
		c0.2,0.8,0.5,1.6,1,2.4l39.3,97c3.9-2,8.5-2.4,12.9-0.8c5,1.8,8.6,5.8,10.1,10.6l22-9C217.5,228.6,219.3,223.5,217.4,218.9z"/>
</g>
</svg>
